<mxfile host="Electron" agent="Mozilla/5.0 (Macintosh; Intel Mac OS X 10_15_7) AppleWebKit/537.36 (KHTML, like Gecko) draw.io/25.0.2 Chrome/128.0.6613.186 Electron/32.2.5 Safari/537.36" version="25.0.2">
  <diagram name="Side-1" id="fcATAvU5OOf7OwCZTNCH">
    <mxGraphModel dx="1590" dy="1212" grid="1" gridSize="10" guides="1" tooltips="1" connect="1" arrows="1" fold="1" page="1" pageScale="1" pageWidth="827" pageHeight="1169" math="0" shadow="0">
      <root>
        <mxCell id="0" />
        <mxCell id="1" parent="0" />
        <mxCell id="EIjOzvA-XhqZiqx_ZJEE-1" value="" style="ellipse;html=1;shape=startState;fillColor=#000000;strokeColor=#ff0000;" vertex="1" parent="1">
          <mxGeometry x="399" y="130" width="30" height="30" as="geometry" />
        </mxCell>
        <mxCell id="EIjOzvA-XhqZiqx_ZJEE-2" value="" style="edgeStyle=orthogonalEdgeStyle;html=1;verticalAlign=bottom;endArrow=open;endSize=8;strokeColor=#ff0000;rounded=0;" edge="1" source="EIjOzvA-XhqZiqx_ZJEE-1" parent="1">
          <mxGeometry relative="1" as="geometry">
            <mxPoint x="414" y="190" as="targetPoint" />
          </mxGeometry>
        </mxCell>
        <mxCell id="EIjOzvA-XhqZiqx_ZJEE-9" style="edgeStyle=orthogonalEdgeStyle;rounded=0;orthogonalLoop=1;jettySize=auto;html=1;entryX=0.5;entryY=0;entryDx=0;entryDy=0;" edge="1" parent="1" source="EIjOzvA-XhqZiqx_ZJEE-3" target="EIjOzvA-XhqZiqx_ZJEE-8">
          <mxGeometry relative="1" as="geometry" />
        </mxCell>
        <mxCell id="EIjOzvA-XhqZiqx_ZJEE-3" value="&lt;b&gt;Issue created on github&lt;/b&gt;" style="rounded=1;whiteSpace=wrap;html=1;" vertex="1" parent="1">
          <mxGeometry x="353" y="190" width="120" height="40" as="geometry" />
        </mxCell>
        <mxCell id="EIjOzvA-XhqZiqx_ZJEE-7" style="edgeStyle=orthogonalEdgeStyle;rounded=0;orthogonalLoop=1;jettySize=auto;html=1;" edge="1" parent="1" source="EIjOzvA-XhqZiqx_ZJEE-4">
          <mxGeometry relative="1" as="geometry">
            <mxPoint x="413" y="390" as="targetPoint" />
          </mxGeometry>
        </mxCell>
        <mxCell id="EIjOzvA-XhqZiqx_ZJEE-4" value="&lt;b&gt;User story is added to the issue&lt;/b&gt;" style="rounded=1;whiteSpace=wrap;html=1;" vertex="1" parent="1">
          <mxGeometry x="353" y="330" width="120" height="40" as="geometry" />
        </mxCell>
        <mxCell id="EIjOzvA-XhqZiqx_ZJEE-13" style="edgeStyle=orthogonalEdgeStyle;rounded=0;orthogonalLoop=1;jettySize=auto;html=1;" edge="1" parent="1" source="EIjOzvA-XhqZiqx_ZJEE-6">
          <mxGeometry relative="1" as="geometry">
            <mxPoint x="413" y="450" as="targetPoint" />
          </mxGeometry>
        </mxCell>
        <mxCell id="EIjOzvA-XhqZiqx_ZJEE-6" value="&lt;b&gt;Acceptance criteria identified&lt;/b&gt;" style="rounded=1;whiteSpace=wrap;html=1;" vertex="1" parent="1">
          <mxGeometry x="353" y="390" width="120" height="40" as="geometry" />
        </mxCell>
        <mxCell id="EIjOzvA-XhqZiqx_ZJEE-10" style="edgeStyle=orthogonalEdgeStyle;rounded=0;orthogonalLoop=1;jettySize=auto;html=1;" edge="1" parent="1" source="EIjOzvA-XhqZiqx_ZJEE-8">
          <mxGeometry relative="1" as="geometry">
            <mxPoint x="413" y="330" as="targetPoint" />
          </mxGeometry>
        </mxCell>
        <mxCell id="EIjOzvA-XhqZiqx_ZJEE-8" value="&lt;b&gt;Title created from our own template&lt;/b&gt;" style="rounded=1;whiteSpace=wrap;html=1;" vertex="1" parent="1">
          <mxGeometry x="353" y="260" width="120" height="50" as="geometry" />
        </mxCell>
        <mxCell id="EIjOzvA-XhqZiqx_ZJEE-14" style="edgeStyle=orthogonalEdgeStyle;rounded=0;orthogonalLoop=1;jettySize=auto;html=1;" edge="1" parent="1" source="EIjOzvA-XhqZiqx_ZJEE-12">
          <mxGeometry relative="1" as="geometry">
            <mxPoint x="559" y="490" as="targetPoint" />
          </mxGeometry>
        </mxCell>
        <mxCell id="EIjOzvA-XhqZiqx_ZJEE-15" value="feature" style="edgeLabel;html=1;align=center;verticalAlign=middle;resizable=0;points=[];" vertex="1" connectable="0" parent="EIjOzvA-XhqZiqx_ZJEE-14">
          <mxGeometry x="-0.4099" relative="1" as="geometry">
            <mxPoint as="offset" />
          </mxGeometry>
        </mxCell>
        <mxCell id="EIjOzvA-XhqZiqx_ZJEE-16" style="edgeStyle=orthogonalEdgeStyle;rounded=0;orthogonalLoop=1;jettySize=auto;html=1;" edge="1" parent="1" source="EIjOzvA-XhqZiqx_ZJEE-12">
          <mxGeometry relative="1" as="geometry">
            <mxPoint x="269" y="490" as="targetPoint" />
          </mxGeometry>
        </mxCell>
        <mxCell id="EIjOzvA-XhqZiqx_ZJEE-17" value="issue" style="edgeLabel;html=1;align=center;verticalAlign=middle;resizable=0;points=[];" vertex="1" connectable="0" parent="EIjOzvA-XhqZiqx_ZJEE-16">
          <mxGeometry x="0.0653" y="-1" relative="1" as="geometry">
            <mxPoint as="offset" />
          </mxGeometry>
        </mxCell>
        <mxCell id="EIjOzvA-XhqZiqx_ZJEE-12" value="&lt;b&gt;What kind of issue?&lt;/b&gt;" style="rhombus;whiteSpace=wrap;html=1;" vertex="1" parent="1">
          <mxGeometry x="338" y="450" width="150" height="80" as="geometry" />
        </mxCell>
        <mxCell id="EIjOzvA-XhqZiqx_ZJEE-18" value="&lt;b&gt;Issue branch is created from main&lt;/b&gt;" style="rounded=1;whiteSpace=wrap;html=1;" vertex="1" parent="1">
          <mxGeometry x="149" y="465" width="120" height="50" as="geometry" />
        </mxCell>
        <mxCell id="EIjOzvA-XhqZiqx_ZJEE-61" value="&lt;b&gt;Feature branch is created from main&lt;/b&gt;" style="rounded=1;whiteSpace=wrap;html=1;" vertex="1" parent="1">
          <mxGeometry x="559" y="465" width="120" height="50" as="geometry" />
        </mxCell>
        <mxCell id="EIjOzvA-XhqZiqx_ZJEE-81" style="edgeStyle=orthogonalEdgeStyle;rounded=0;orthogonalLoop=1;jettySize=auto;html=1;entryX=0.5;entryY=0;entryDx=0;entryDy=0;" edge="1" parent="1" source="EIjOzvA-XhqZiqx_ZJEE-63" target="EIjOzvA-XhqZiqx_ZJEE-70">
          <mxGeometry relative="1" as="geometry" />
        </mxCell>
        <mxCell id="EIjOzvA-XhqZiqx_ZJEE-63" value="&lt;b&gt;Work on issue&lt;/b&gt;" style="rounded=1;whiteSpace=wrap;html=1;" vertex="1" parent="1">
          <mxGeometry x="353" y="550" width="120" height="40" as="geometry" />
        </mxCell>
        <mxCell id="EIjOzvA-XhqZiqx_ZJEE-68" value="" style="edgeStyle=segmentEdgeStyle;endArrow=classic;html=1;curved=0;rounded=0;endSize=8;startSize=8;exitX=0.5;exitY=1;exitDx=0;exitDy=0;entryX=1;entryY=0.5;entryDx=0;entryDy=0;" edge="1" parent="1" source="EIjOzvA-XhqZiqx_ZJEE-61" target="EIjOzvA-XhqZiqx_ZJEE-63">
          <mxGeometry width="50" height="50" relative="1" as="geometry">
            <mxPoint x="629" y="530" as="sourcePoint" />
            <mxPoint x="539" y="610" as="targetPoint" />
            <Array as="points">
              <mxPoint x="619" y="570" />
            </Array>
          </mxGeometry>
        </mxCell>
        <mxCell id="EIjOzvA-XhqZiqx_ZJEE-69" value="" style="edgeStyle=segmentEdgeStyle;endArrow=classic;html=1;curved=0;rounded=0;endSize=8;startSize=8;exitX=0.5;exitY=1;exitDx=0;exitDy=0;entryX=0;entryY=0.5;entryDx=0;entryDy=0;" edge="1" parent="1" target="EIjOzvA-XhqZiqx_ZJEE-63">
          <mxGeometry width="50" height="50" relative="1" as="geometry">
            <mxPoint x="205" y="515" as="sourcePoint" />
            <mxPoint x="59" y="600" as="targetPoint" />
            <Array as="points">
              <mxPoint x="205" y="570" />
            </Array>
          </mxGeometry>
        </mxCell>
        <mxCell id="EIjOzvA-XhqZiqx_ZJEE-77" style="edgeStyle=orthogonalEdgeStyle;rounded=0;orthogonalLoop=1;jettySize=auto;html=1;" edge="1" parent="1" source="EIjOzvA-XhqZiqx_ZJEE-70">
          <mxGeometry relative="1" as="geometry">
            <mxPoint x="413" y="760" as="targetPoint" />
          </mxGeometry>
        </mxCell>
        <mxCell id="EIjOzvA-XhqZiqx_ZJEE-78" value="Yes?" style="edgeLabel;html=1;align=center;verticalAlign=middle;resizable=0;points=[];" vertex="1" connectable="0" parent="EIjOzvA-XhqZiqx_ZJEE-77">
          <mxGeometry x="-0.2116" relative="1" as="geometry">
            <mxPoint as="offset" />
          </mxGeometry>
        </mxCell>
        <mxCell id="EIjOzvA-XhqZiqx_ZJEE-70" value="&lt;b&gt;Are all acceptance criteria satisfied?&lt;/b&gt;" style="rhombus;whiteSpace=wrap;html=1;" vertex="1" parent="1">
          <mxGeometry x="308" y="630" width="210" height="80" as="geometry" />
        </mxCell>
        <mxCell id="EIjOzvA-XhqZiqx_ZJEE-75" value="" style="edgeStyle=segmentEdgeStyle;endArrow=classic;html=1;curved=0;rounded=0;endSize=8;startSize=8;entryX=1;entryY=0.75;entryDx=0;entryDy=0;exitX=1;exitY=0.5;exitDx=0;exitDy=0;" edge="1" parent="1" source="EIjOzvA-XhqZiqx_ZJEE-70" target="EIjOzvA-XhqZiqx_ZJEE-63">
          <mxGeometry width="50" height="50" relative="1" as="geometry">
            <mxPoint x="509" y="670" as="sourcePoint" />
            <mxPoint x="539" y="580" as="targetPoint" />
            <Array as="points">
              <mxPoint x="539" y="670" />
              <mxPoint x="539" y="580" />
            </Array>
          </mxGeometry>
        </mxCell>
        <mxCell id="EIjOzvA-XhqZiqx_ZJEE-76" value="No?" style="edgeLabel;html=1;align=center;verticalAlign=middle;resizable=0;points=[];" vertex="1" connectable="0" parent="EIjOzvA-XhqZiqx_ZJEE-75">
          <mxGeometry x="-0.4185" y="1" relative="1" as="geometry">
            <mxPoint y="-19" as="offset" />
          </mxGeometry>
        </mxCell>
        <mxCell id="EIjOzvA-XhqZiqx_ZJEE-83" style="edgeStyle=orthogonalEdgeStyle;rounded=0;orthogonalLoop=1;jettySize=auto;html=1;entryX=0.5;entryY=0;entryDx=0;entryDy=0;" edge="1" parent="1" source="EIjOzvA-XhqZiqx_ZJEE-79" target="EIjOzvA-XhqZiqx_ZJEE-82">
          <mxGeometry relative="1" as="geometry" />
        </mxCell>
        <mxCell id="EIjOzvA-XhqZiqx_ZJEE-79" value="&lt;b&gt;Open new pull request&lt;/b&gt;" style="rounded=1;whiteSpace=wrap;html=1;" vertex="1" parent="1">
          <mxGeometry x="353" y="760" width="120" height="40" as="geometry" />
        </mxCell>
        <mxCell id="EIjOzvA-XhqZiqx_ZJEE-85" style="edgeStyle=orthogonalEdgeStyle;rounded=0;orthogonalLoop=1;jettySize=auto;html=1;entryX=0.5;entryY=0;entryDx=0;entryDy=0;" edge="1" parent="1" source="EIjOzvA-XhqZiqx_ZJEE-82" target="EIjOzvA-XhqZiqx_ZJEE-84">
          <mxGeometry relative="1" as="geometry" />
        </mxCell>
        <mxCell id="EIjOzvA-XhqZiqx_ZJEE-82" value="&lt;b&gt;Link the issue to the pull request&lt;/b&gt;" style="rounded=1;whiteSpace=wrap;html=1;" vertex="1" parent="1">
          <mxGeometry x="353" y="830" width="120" height="40" as="geometry" />
        </mxCell>
        <mxCell id="EIjOzvA-XhqZiqx_ZJEE-87" style="edgeStyle=orthogonalEdgeStyle;rounded=0;orthogonalLoop=1;jettySize=auto;html=1;" edge="1" parent="1" source="EIjOzvA-XhqZiqx_ZJEE-84">
          <mxGeometry relative="1" as="geometry">
            <mxPoint x="413" y="960" as="targetPoint" />
          </mxGeometry>
        </mxCell>
        <mxCell id="EIjOzvA-XhqZiqx_ZJEE-84" value="&lt;b&gt;Wait for a minimum of one reviewer&lt;/b&gt;" style="rounded=1;whiteSpace=wrap;html=1;" vertex="1" parent="1">
          <mxGeometry x="353" y="900" width="120" height="40" as="geometry" />
        </mxCell>
        <mxCell id="EIjOzvA-XhqZiqx_ZJEE-92" style="edgeStyle=orthogonalEdgeStyle;rounded=0;orthogonalLoop=1;jettySize=auto;html=1;" edge="1" parent="1" source="EIjOzvA-XhqZiqx_ZJEE-86">
          <mxGeometry relative="1" as="geometry">
            <mxPoint x="413" y="1130" as="targetPoint" />
          </mxGeometry>
        </mxCell>
        <mxCell id="EIjOzvA-XhqZiqx_ZJEE-93" value="Yes?" style="edgeLabel;html=1;align=center;verticalAlign=middle;resizable=0;points=[];" vertex="1" connectable="0" parent="EIjOzvA-XhqZiqx_ZJEE-92">
          <mxGeometry x="-0.1286" y="-1" relative="1" as="geometry">
            <mxPoint as="offset" />
          </mxGeometry>
        </mxCell>
        <mxCell id="EIjOzvA-XhqZiqx_ZJEE-86" value="&lt;b&gt;Has the pull request been reviewed?&lt;/b&gt;" style="rhombus;whiteSpace=wrap;html=1;" vertex="1" parent="1">
          <mxGeometry x="318" y="960" width="190" height="110" as="geometry" />
        </mxCell>
        <mxCell id="EIjOzvA-XhqZiqx_ZJEE-90" value="" style="edgeStyle=segmentEdgeStyle;endArrow=classic;html=1;curved=0;rounded=0;endSize=8;startSize=8;entryX=1;entryY=0.5;entryDx=0;entryDy=0;exitX=1;exitY=0.5;exitDx=0;exitDy=0;" edge="1" parent="1" source="EIjOzvA-XhqZiqx_ZJEE-86" target="EIjOzvA-XhqZiqx_ZJEE-84">
          <mxGeometry width="50" height="50" relative="1" as="geometry">
            <mxPoint x="533" y="1030" as="sourcePoint" />
            <mxPoint x="488" y="940" as="targetPoint" />
            <Array as="points">
              <mxPoint x="554" y="1015" />
              <mxPoint x="554" y="920" />
            </Array>
          </mxGeometry>
        </mxCell>
        <mxCell id="EIjOzvA-XhqZiqx_ZJEE-91" value="No?" style="edgeLabel;html=1;align=center;verticalAlign=middle;resizable=0;points=[];" vertex="1" connectable="0" parent="EIjOzvA-XhqZiqx_ZJEE-90">
          <mxGeometry x="-0.4185" y="1" relative="1" as="geometry">
            <mxPoint y="-19" as="offset" />
          </mxGeometry>
        </mxCell>
        <mxCell id="EIjOzvA-XhqZiqx_ZJEE-96" style="edgeStyle=orthogonalEdgeStyle;rounded=0;orthogonalLoop=1;jettySize=auto;html=1;" edge="1" parent="1" source="EIjOzvA-XhqZiqx_ZJEE-95">
          <mxGeometry relative="1" as="geometry">
            <mxPoint x="414" y="1270" as="targetPoint" />
          </mxGeometry>
        </mxCell>
        <mxCell id="EIjOzvA-XhqZiqx_ZJEE-97" value="Yes?" style="edgeLabel;html=1;align=center;verticalAlign=middle;resizable=0;points=[];" vertex="1" connectable="0" parent="EIjOzvA-XhqZiqx_ZJEE-96">
          <mxGeometry x="-0.0655" relative="1" as="geometry">
            <mxPoint as="offset" />
          </mxGeometry>
        </mxCell>
        <mxCell id="EIjOzvA-XhqZiqx_ZJEE-95" value="&lt;b&gt;Has the pull request been approved?&lt;/b&gt;" style="rhombus;whiteSpace=wrap;html=1;" vertex="1" parent="1">
          <mxGeometry x="329" y="1130" width="170" height="100" as="geometry" />
        </mxCell>
        <mxCell id="EIjOzvA-XhqZiqx_ZJEE-98" value="" style="edgeStyle=segmentEdgeStyle;endArrow=classic;html=1;curved=0;rounded=0;endSize=8;startSize=8;exitX=0;exitY=0.5;exitDx=0;exitDy=0;entryX=0;entryY=0.75;entryDx=0;entryDy=0;" edge="1" parent="1" source="EIjOzvA-XhqZiqx_ZJEE-95" target="EIjOzvA-XhqZiqx_ZJEE-63">
          <mxGeometry width="50" height="50" relative="1" as="geometry">
            <mxPoint x="244" y="1223" as="sourcePoint" />
            <mxPoint x="349" y="580" as="targetPoint" />
            <Array as="points">
              <mxPoint x="259" y="1180" />
              <mxPoint x="259" y="580" />
            </Array>
          </mxGeometry>
        </mxCell>
        <mxCell id="EIjOzvA-XhqZiqx_ZJEE-99" value="No?" style="edgeLabel;html=1;align=center;verticalAlign=middle;resizable=0;points=[];" vertex="1" connectable="0" parent="EIjOzvA-XhqZiqx_ZJEE-98">
          <mxGeometry x="-0.4185" y="1" relative="1" as="geometry">
            <mxPoint y="24" as="offset" />
          </mxGeometry>
        </mxCell>
        <mxCell id="EIjOzvA-XhqZiqx_ZJEE-100" value="&lt;b&gt;Identify the reviewers issues&lt;/b&gt;" style="rounded=1;whiteSpace=wrap;html=1;" vertex="1" parent="1">
          <mxGeometry x="198" y="880" width="120" height="60" as="geometry" />
        </mxCell>
        <mxCell id="EIjOzvA-XhqZiqx_ZJEE-107" style="edgeStyle=orthogonalEdgeStyle;rounded=0;orthogonalLoop=1;jettySize=auto;html=1;entryX=0.5;entryY=0;entryDx=0;entryDy=0;" edge="1" parent="1" source="EIjOzvA-XhqZiqx_ZJEE-101" target="EIjOzvA-XhqZiqx_ZJEE-106">
          <mxGeometry relative="1" as="geometry" />
        </mxCell>
        <mxCell id="EIjOzvA-XhqZiqx_ZJEE-101" value="&lt;b&gt;Merge pull request with the main branch&lt;/b&gt;" style="rounded=1;whiteSpace=wrap;html=1;" vertex="1" parent="1">
          <mxGeometry x="354" y="1270" width="120" height="60" as="geometry" />
        </mxCell>
        <mxCell id="EIjOzvA-XhqZiqx_ZJEE-106" value="&lt;b&gt;Close the pull request and delete it&#39;s branch&lt;/b&gt;" style="rounded=1;whiteSpace=wrap;html=1;" vertex="1" parent="1">
          <mxGeometry x="354" y="1360" width="120" height="60" as="geometry" />
        </mxCell>
      </root>
    </mxGraphModel>
  </diagram>
</mxfile>
